 http://img155.imageshack.us/img155/1068/riseoftheplanetoftheapeh.jpg

Country.......: USA
Genre.........: Sci-Fi, Thriller, Drama, Action, Adventure
Date release..: 03.08.2011 [World]
Director......: Rupert Wyatt
Writers.......: Rick Jaffa, Amanda Silver
Duration......: 98 min.
More..........: http://www.imdb.com/title/tt1318514
Trailer.......: http://www.imdb.com/video/imdb/vi1615502617
Trailer.......:

Pilot :
During experiments to find a cure for Alzheimer's disease, a genetically-enhanced chimpanzee uses its greater intelligence to lead other apes to freedom. 

Cats :
James Franco   	 ...  	Will Rodman
Freida Pinto 	... 	Caroline Aranha
John Lithgow 	... 	Charles Rodman
Brian Cox 	... 	John Landon
Tom Felton 	... 	Dodge Landon
David Oyelowo 	... 	Steven Jacobs
Tyler Labine 	... 	Robert Franklin
Jamie Harris 	... 	Rodney
David Hewlett 	... 	Hunsiker
Ty Olsson 	... 	Chief John Hamil
Madison Bell 	... 	Alice Hunsiker
Makena Joy 	... 	Alice Hunsiker (Teen)
Kevin O Grady 	... 	Animal Control Officer #1
Sean Tyson 	... 	Animal Control Officer #2
Jack Kuris 	... 	Boy in Muir Woods 

Data Technical :
!!! SAMPLE !!!
Audio.....: English
Subtitles.: Polish .txt
Format                           : AVI
Format/Info                      : Audio Video Interleave
File size                        : 1.40 GiB
Duration                         : 1h 37mn
Overall bit rate                 : 2 054 Kbps
Writing application              : Nandub v1.0rc2
Writing library                  : Nandub build 1853/release
Video
ID                               : 0
Format                           : MPEG-4 Visual
Format profile                   : Advanced Simple@L5
Format settings, BVOP            : Yes
Format settings, QPel            : Yes
Format settings, GMC             : No warppoints
Format settings, Matrix          : Default (H.263)
Muxing mode                      : Packed bitstream
Codec ID                         : XVID
Codec ID/Hint                    : XviD
Duration                         : 1h 37mn
Bit rate                         : 1 788 Kbps
Width                            : 720 pixels
Height                           : 304 pixels
Display aspect ratio             : 2.35:1
Frame rate                       : 25.000 fps
Color space                      : YUV
Chroma subsampling               : 4:2:0
Bit depth                        : 8 bits
Scan type                        : Progressive
Bits/(Pixel*Frame)               : 0.327
Stream size                      : 1.22 GiB (87%)
Writing library                  : XviD 1.2.1 (UTC 2008-12-04)
Audio
ID                               : 1
Format                           : AC-3
Format/Info                      : Audio Coding 3
Mode extension                   : CM (complete main)
Codec ID                         : 2000
Duration                         : 1h 37mn
Bit rate mode                    : Constant
Bit rate                         : 256 Kbps
Channel(s)                       : 2 channels
Channel positions                : Front: L R
Sampling rate                    : 48.0 KHz
Bit depth                        : 16 bits
Stream size                      : 179 MiB (12%)
Alignment                        : Split accross interleaves
Interleave, duration             : 40 ms (1.00 video frame)
Interleave, preload duration     : 500 ms

Screen : 
http://img805.imageshack.us/img805/3185/riseoftheplanetoftheapey.jpg 
http://img14.imageshack.us/img14/6360/riseoftheplanetoftheapen.jpg 
http://img535.imageshack.us/img535/8058/riseoftheplanetoftheapef.jpg 
http://img534.imageshack.us/img534/1068/riseoftheplanetoftheapeh.jpg 
http://img708.imageshack.us/img708/9199/riseoftheplanetoftheape.jpg